<svg version="1.1" id="Layer_1" xmlns="http://www.w3.org/2000/svg" xmlns:xlink="http://www.w3.org/1999/xlink" x="0px" y="0px"
	 width="100%" viewBox="0 0 512 512" enable-background="new 0 0 512 512" xml:space="preserve">
<path fill="#F07878" opacity="1.000000" stroke="none" 
	d="
M0.999998,244.000000 
	C1.000000,238.645065 1.000000,233.290146 1.339907,227.390610 
	C2.990069,225.198059 4.121111,223.359100 5.640242,221.933777 
	C14.200580,213.902008 22.822645,205.935150 31.482988,198.011017 
	C46.661293,184.122986 61.870419,170.268570 77.090042,156.425827 
	C87.551300,146.910950 98.068405,137.457474 108.531403,127.944527 
	C123.630455,114.216476 138.693085,100.448387 153.790390,86.718407 
	C164.375259,77.092186 175.022415,67.534294 185.587479,57.886459 
	C201.639160,43.228344 217.522461,28.382776 233.737274,13.908082 
	C239.077179,9.141240 245.222794,5.276984 251.000000,1.000005 
	C254.692917,1.000000 258.385834,1.000000 262.643768,1.358155 
	C264.964386,2.474699 267.037720,2.862085 268.425049,4.050411 
	C279.134583,13.223789 289.772461,22.483414 300.311920,31.851980 
	C310.765442,41.144154 321.099304,50.571510 331.448090,59.980835 
	C346.683197,73.832863 361.872650,87.735069 377.105225,101.589867 
	C387.575439,111.113029 398.102356,120.573792 408.574310,130.095062 
	C423.686127,143.835052 438.802185,157.570740 453.856293,171.373886 
	C463.346466,180.075500 472.673431,188.955338 482.179749,197.639053 
	C486.647583,201.720322 491.648651,205.246399 495.902740,209.526321 
	C501.989410,215.650009 509.273041,220.787323 513.000000,229.000000 
	C513.000000,233.024551 513.000000,237.049088 512.641846,241.641220 
	C510.598297,249.052795 506.258179,253.789261 499.753937,255.896042 
	C488.554749,259.523560 479.078918,256.119385 471.000000,246.252655 
	C471.000000,249.136459 471.000000,250.748444 471.000000,252.360443 
	C471.000000,330.496948 470.907104,408.633636 471.095154,486.769684 
	C471.125061,499.200409 467.026489,508.339386 455.000000,513.000000 
	C323.312439,513.000000 191.624878,513.000000 59.362946,512.640686 
	C49.998962,510.520935 42.999989,501.858307 42.999992,490.052368 
	C43.000008,410.835449 43.000000,331.618561 43.000000,252.401642 
	C43.000000,250.700989 43.000000,249.000320 43.000000,246.042618 
	C41.060917,248.212387 40.124592,249.367584 39.078850,250.413376 
	C30.219028,259.273682 16.820463,259.164124 8.483432,252.688873 
	C5.524427,250.390671 3.468295,246.930008 0.999998,244.000000 
M293.475861,84.985710 
	C285.456848,77.637054 277.462463,70.261269 269.408630,62.950989 
	C265.294617,59.216820 261.073975,55.600117 256.834717,51.871540 
	C249.997711,58.296810 243.355865,64.740631 236.496674,70.944153 
	C220.525238,85.388878 204.430908,99.697617 188.421890,114.100906 
	C177.777252,123.677856 167.160248,133.286072 156.590973,142.946060 
	C140.287125,157.847275 124.059555,172.831970 107.746857,187.723419 
	C102.172142,192.812439 96.414940,197.701050 90.789398,202.735184 
	C88.590645,204.702805 86.874741,206.584152 86.881195,210.184448 
	C87.034210,295.507019 86.998703,380.829895 87.012596,466.152740 
	C87.012802,467.410217 87.201912,468.667694 87.281281,469.656433 
	C115.423706,469.656433 143.161057,469.656433 171.000000,469.656433 
	C171.000000,427.491455 170.921555,385.669678 171.087982,343.848846 
	C171.111832,337.854095 171.973190,331.801971 173.038010,325.882721 
	C177.265121,302.384613 189.776108,284.251617 209.446045,270.961060 
	C228.287476,258.230255 249.057968,254.591370 271.321259,257.970245 
	C293.182800,261.288147 310.807434,272.061401 324.441681,289.084869 
	C337.553802,305.456421 343.092926,324.590942 343.032898,345.519379 
	C342.919128,385.180817 343.000000,424.842865 343.000000,464.504639 
	C343.000000,466.268738 343.000000,468.032806 343.000000,469.708862 
	C371.318237,469.708862 399.054810,469.708862 426.819733,469.708862 
	C426.898438,468.943024 426.991089,468.462250 426.991150,467.981506 
	C426.998413,381.825439 427.025208,295.669312 426.851837,209.513611 
	C426.847443,207.323624 425.117920,204.613480 423.384460,203.032242 
	C407.351990,188.407791 391.124207,173.997696 374.988739,159.485794 
	C364.466309,150.022141 353.963501,140.535904 343.521912,130.983261 
	C326.979736,115.849388 310.496155,100.651459 293.475861,84.985710 
M285.702759,311.972809 
	C274.773254,301.434052 261.522827,297.987274 247.172745,301.513885 
	C227.576813,306.329742 214.718643,323.826691 214.897675,344.337494 
	C215.246735,384.329468 215.000000,424.326691 215.000000,464.321716 
	C215.000000,466.103241 215.000000,467.884766 215.000000,469.773560 
	C243.187897,469.773560 270.923950,469.773560 298.998444,469.773560 
	C298.998444,468.923065 298.998444,468.293823 298.998444,467.664581 
	C298.998962,425.003204 299.035004,382.341736 298.923920,339.680634 
	C298.916107,336.684875 298.432373,333.383972 297.110168,330.758728 
	C293.883698,324.352753 290.034851,318.260315 285.702759,311.972809 
z"/>
<path fill="#FFFFFF" opacity="1.000000" stroke="none" 
	d="
M513.000000,228.531342 
	C509.273041,220.787323 501.989410,215.650009 495.902740,209.526321 
	C491.648651,205.246399 486.647583,201.720322 482.179749,197.639053 
	C472.673431,188.955338 463.346466,180.075500 453.856293,171.373886 
	C438.802185,157.570740 423.686127,143.835052 408.574310,130.095062 
	C398.102356,120.573792 387.575439,111.113029 377.105225,101.589867 
	C361.872650,87.735069 346.683197,73.832863 331.448090,59.980835 
	C321.099304,50.571510 310.765442,41.144154 300.311920,31.851980 
	C289.772461,22.483414 279.134583,13.223789 268.425049,4.050411 
	C267.037720,2.862085 264.964386,2.474699 263.104401,1.358155 
	C346.257019,1.000000 429.514038,1.000000 513.000000,1.000000 
	C513.000000,76.687408 513.000000,152.375046 513.000000,228.531342 
z"/>
<path fill="#FFFFFF" opacity="1.000000" stroke="none" 
	d="
M250.531342,1.000005 
	C245.222794,5.276984 239.077179,9.141240 233.737274,13.908082 
	C217.522461,28.382776 201.639160,43.228344 185.587479,57.886459 
	C175.022415,67.534294 164.375259,77.092186 153.790390,86.718407 
	C138.693085,100.448387 123.630455,114.216476 108.531403,127.944527 
	C98.068405,137.457474 87.551300,146.910950 77.090042,156.425827 
	C61.870419,170.268570 46.661293,184.122986 31.482988,198.011017 
	C22.822645,205.935150 14.200580,213.902008 5.640242,221.933777 
	C4.121111,223.359100 2.990069,225.198059 1.339907,226.923004 
	C1.000000,151.735947 1.000000,76.471886 1.000000,1.000000 
	C84.020782,1.000000 167.041733,1.000000 250.531342,1.000005 
z"/>
<path fill="#FFFFFF" opacity="1.000000" stroke="none" 
	d="
M455.468658,513.000000 
	C467.026489,508.339386 471.125061,499.200409 471.095154,486.769684 
	C470.907104,408.633636 471.000000,330.496948 471.000000,252.360443 
	C471.000000,250.748444 471.000000,249.136459 471.000000,246.252655 
	C479.078918,256.119385 488.554749,259.523560 499.753937,255.896042 
	C506.258179,253.789261 510.598297,249.052795 512.641846,242.104401 
	C513.000000,332.213074 513.000000,422.426147 513.000000,513.000000 
	C493.980621,513.000000 474.958984,513.000000 455.468658,513.000000 
z"/>
<path fill="#FFFFFF" opacity="1.000000" stroke="none" 
	d="
M0.999998,244.468658 
	C3.468295,246.930008 5.524427,250.390671 8.483432,252.688873 
	C16.820463,259.164124 30.219028,259.273682 39.078850,250.413376 
	C40.124592,249.367584 41.060917,248.212387 43.000000,246.042618 
	C43.000000,249.000320 43.000000,250.700989 43.000000,252.401642 
	C43.000000,331.618561 43.000008,410.835449 42.999992,490.052368 
	C42.999989,501.858307 49.998962,510.520935 58.894287,512.640686 
	C39.692558,513.000000 20.385115,513.000000 1.000000,513.000000 
	C1.000000,423.645782 1.000000,334.291565 0.999998,244.468658 
z"/>
<path fill="#FFFFFF" opacity="1.000000" stroke="none" 
	d="
M293.731812,85.233170 
	C310.496155,100.651459 326.979736,115.849388 343.521912,130.983261 
	C353.963501,140.535904 364.466309,150.022141 374.988739,159.485794 
	C391.124207,173.997696 407.351990,188.407791 423.384460,203.032242 
	C425.117920,204.613480 426.847443,207.323624 426.851837,209.513611 
	C427.025208,295.669312 426.998413,381.825439 426.991150,467.981506 
	C426.991089,468.462250 426.898438,468.943024 426.819733,469.708862 
	C399.054810,469.708862 371.318237,469.708862 343.000000,469.708862 
	C343.000000,468.032806 343.000000,466.268738 343.000000,464.504639 
	C343.000000,424.842865 342.919128,385.180817 343.032898,345.519379 
	C343.092926,324.590942 337.553802,305.456421 324.441681,289.084869 
	C310.807434,272.061401 293.182800,261.288147 271.321259,257.970245 
	C249.057968,254.591370 228.287476,258.230255 209.446045,270.961060 
	C189.776108,284.251617 177.265121,302.384613 173.038010,325.882721 
	C171.973190,331.801971 171.111832,337.854095 171.087982,343.848846 
	C170.921555,385.669678 171.000000,427.491455 171.000000,469.656433 
	C143.161057,469.656433 115.423706,469.656433 87.281281,469.656433 
	C87.201912,468.667694 87.012802,467.410217 87.012596,466.152740 
	C86.998703,380.829895 87.034210,295.507019 86.881195,210.184448 
	C86.874741,206.584152 88.590645,204.702805 90.789398,202.735184 
	C96.414940,197.701050 102.172142,192.812439 107.746857,187.723419 
	C124.059555,172.831970 140.287125,157.847275 156.590973,142.946060 
	C167.160248,133.286072 177.777252,123.677856 188.421890,114.100906 
	C204.430908,99.697617 220.525238,85.388878 236.496674,70.944153 
	C243.355865,64.740631 249.997711,58.296810 256.834717,51.871540 
	C261.073975,55.600117 265.294617,59.216820 269.408630,62.950989 
	C277.462463,70.261269 285.456848,77.637054 293.731812,85.233170 
z"/>
<path fill="#FFFFFF" opacity="1.000000" stroke="none" 
	d="
M286.069672,312.007202 
	C290.034851,318.260315 293.883698,324.352753 297.110168,330.758728 
	C298.432373,333.383972 298.916107,336.684875 298.923920,339.680634 
	C299.035004,382.341736 298.998962,425.003204 298.998444,467.664581 
	C298.998444,468.293823 298.998444,468.923065 298.998444,469.773560 
	C270.923950,469.773560 243.187897,469.773560 215.000000,469.773560 
	C215.000000,467.884766 215.000000,466.103241 215.000000,464.321716 
	C215.000000,424.326691 215.246735,384.329468 214.897675,344.337494 
	C214.718643,323.826691 227.576813,306.329742 247.172745,301.513885 
	C261.522827,297.987274 274.773254,301.434052 286.069672,312.007202 
z"/>
</svg>