<?xml version="1.0" standalone="no"?>
<!DOCTYPE svg PUBLIC "-//W3C//DTD SVG 20010904//EN"
 "http://www.w3.org/TR/2001/REC-SVG-20010904/DTD/svg10.dtd">
<svg xmlns="http://www.w3.org/2000/svg" width="805" height="805" viewBox="0 0 805 805" fill="none">
<path d="M197.713 534.947L197.721 534.938L197.73 534.93L330.439 402.22L197.73 269.397C197.727 269.393 197.723 269.39 197.72 269.387C155.285 226.952 116.468 187.868 88.0893 159.072C73.9073 144.681 62.2869 132.814 54.111 124.366C50.0374 120.157 46.735 116.71 44.3721 114.193C43.2103 112.955 42.1408 111.799 41.2761 110.828C40.8625 110.363 40.3178 109.743 39.7704 109.076C39.5045 108.752 39.069 108.213 38.5803 107.549L38.5531 107.513C38.2788 107.142 37.0206 105.441 35.8313 103.099C23.3598 78.5223 34.1365 50.1409 56.0267 37.5034C70.3901 28.9843 87.8361 28.0225 103.188 35.8772C105.484 37.0529 107.147 38.2827 107.513 38.5532L107.549 38.5803C108.212 39.069 108.752 39.5044 109.076 39.7702C109.742 40.3176 110.363 40.8622 110.827 41.2756C111.798 42.1401 112.954 43.2094 114.192 44.371C116.709 46.7333 120.156 50.0353 124.365 54.1085C132.814 62.2831 144.684 73.9026 159.082 88.0832C187.895 116.461 227.012 155.279 269.513 197.713L269.521 197.721L269.53 197.73L402.239 330.439L535.063 197.73C535.066 197.727 535.069 197.723 535.072 197.72C577.507 155.285 616.591 116.468 645.388 88.0894C659.778 73.9073 671.646 62.2869 680.094 54.1111C684.303 50.0374 687.749 46.735 690.267 44.3722C691.505 43.2103 692.661 42.1409 693.632 41.2761C694.096 40.8625 694.717 40.3179 695.384 39.7704C695.707 39.5045 696.247 39.069 696.91 38.5804L696.947 38.5535C697.325 38.2733 699.097 36.9628 701.523 35.7497C717.114 27.9542 733.635 29.2162 747.708 37.0346L747.725 37.0436L747.741 37.0526C770.271 49.6049 781.068 78.2197 768.71 102.936C767.497 105.363 766.186 107.134 765.906 107.513L765.879 107.549C765.39 108.213 764.955 108.752 764.689 109.076C764.142 109.743 763.597 110.363 763.183 110.828C762.319 111.799 761.249 112.955 760.087 114.193C757.724 116.71 754.422 120.157 750.348 124.366C742.173 132.814 730.552 144.681 716.37 159.072C687.991 187.868 649.174 226.952 606.739 269.387C606.736 269.39 606.733 269.393 606.73 269.397L474.021 402.22L606.73 534.93L606.738 534.938L606.747 534.947C649.18 577.447 687.998 616.565 716.376 645.377C730.557 659.775 742.176 671.646 750.351 680.094C754.424 684.304 757.726 687.751 760.088 690.268C761.25 691.506 762.319 692.662 763.184 693.632C763.597 694.097 764.142 694.717 764.689 695.384C764.955 695.708 765.391 696.247 765.879 696.91L765.906 696.947C766.187 697.326 767.497 699.097 768.71 701.523C781.068 726.24 770.271 754.855 747.741 767.407L747.725 767.416L747.708 767.425C733.635 775.243 717.114 776.505 701.523 768.71C699.098 767.497 697.326 766.187 696.947 765.906L696.91 765.879C696.247 765.39 695.707 764.955 695.384 764.689C694.717 764.142 694.096 763.597 693.632 763.183C692.661 762.319 691.505 761.249 690.267 760.087C687.749 757.725 684.303 754.422 680.094 750.348C671.646 742.173 659.778 730.552 645.388 716.37C616.591 687.991 577.507 649.174 535.072 606.739C535.069 606.736 535.066 606.733 535.063 606.73L402.239 474.021L269.53 606.73L269.521 606.738L269.513 606.747C227.012 649.181 187.895 687.998 159.082 716.376C144.684 730.557 132.814 742.176 124.365 750.351C120.156 754.424 116.709 757.726 114.192 760.089C112.954 761.25 111.798 762.319 110.827 763.184C110.363 763.597 109.742 764.142 109.076 764.689C108.752 764.955 108.212 765.391 107.549 765.879C107.539 765.887 107.527 765.896 107.512 765.906C107.133 766.187 105.362 767.497 102.936 768.71C78.2196 781.068 49.6048 770.271 37.0525 747.741L37.0435 747.725L37.0346 747.709C29.2161 733.635 27.9541 717.114 35.7497 701.523C36.9624 699.098 38.2725 697.326 38.5531 696.947C38.5636 696.933 38.5727 696.921 38.5802 696.91C39.0689 696.247 39.5043 695.708 39.7702 695.384C40.3176 694.717 40.8621 694.097 41.2756 693.632C42.1401 692.662 43.2094 691.506 44.371 690.268C46.7333 687.751 50.0353 684.304 54.1084 680.094C62.2831 671.646 73.9025 659.775 88.0831 645.377C116.461 616.565 155.279 577.447 197.713 534.947Z" fill="black" stroke="black" stroke-width="61"/>
</svg>
