<?xml version="1.0" standalone="no"?>
<!DOCTYPE svg PUBLIC "-//W3C//DTD SVG 20010904//EN"
 "http://www.w3.org/TR/2001/REC-SVG-20010904/DTD/svg10.dtd">
<svg version="1.0" xmlns="http://www.w3.org/2000/svg"
 width="23.000000pt" height="22.000000pt" viewBox="0 0 23.000000 22.000000"
 preserveAspectRatio="xMidYMid meet">

<g transform="translate(0.000000,22.000000) scale(0.100000,-0.100000)"
fill="#91FF8E" stroke="none">
<path d="M105 172 c-99 -41 -117 -63 -63 -78 25 -7 36 -18 44 -44 19 -57 39
-45 93 55 67 122 64 124 -74 67z m90 8 c3 -6 -13 -44 -36 -86 -30 -54 -44 -72
-50 -63 -18 28 -8 55 39 103 34 36 39 44 17 29 -16 -12 -39 -30 -49 -42 -22
-24 -54 -27 -80 -8 -16 12 -9 17 61 44 89 36 90 36 98 23z"/>
</g>
</svg>
