<?xml version="1.0" standalone="no"?>
<!DOCTYPE svg PUBLIC "-//W3C//DTD SVG 20010904//EN"
 "http://www.w3.org/TR/2001/REC-SVG-20010904/DTD/svg10.dtd">
<svg version="1.0" xmlns="http://www.w3.org/2000/svg"
 width="512.000000pt" height="512.000000pt" viewBox="0 0 512.000000 512.000000"
 preserveAspectRatio="xMidYMid meet">

<g transform="translate(0.000000,512.000000) scale(0.100000,-0.100000)"
fill="#F07878" stroke="none">
<path d="M2470 4740 c-214 -33 -404 -199 -472 -410 -29 -91 -29 -249 0 -340
59 -184 212 -335 397 -392 95 -29 243 -29 335 1 182 58 333 209 392 391 29 91
29 249 0 340 -89 276 -371 454 -652 410z"/>
<path d="M2470 3140 c-214 -33 -404 -199 -472 -410 -29 -91 -29 -249 0 -340
59 -184 212 -335 397 -392 95 -29 243 -29 335 1 182 58 333 209 392 391 29 91
29 249 0 340 -89 276 -371 454 -652 410z"/>
<path d="M2470 1540 c-214 -33 -404 -199 -472 -410 -29 -91 -29 -249 0 -340
59 -184 212 -335 397 -392 95 -29 243 -29 335 1 182 58 333 209 392 391 29 91
29 249 0 340 -89 276 -371 454 -652 410z"/>
</g>
</svg>
