<?xml version="1.0" standalone="no"?>
<!DOCTYPE svg PUBLIC "-//W3C//DTD SVG 20010904//EN"
 "http://www.w3.org/TR/2001/REC-SVG-20010904/DTD/svg10.dtd">
<svg version="1.0" xmlns="http://www.w3.org/2000/svg"
 width="35px" height="35px" viewBox="0 0 225.000000 225.000000"
 preserveAspectRatio="xMidYMid meet">

<g transform="translate(0.000000,225.000000) scale(0.100000,-0.100000)"
fill="#fff" stroke="none">
<path d="M1405 2162 c-75 -25 -101 -111 -51 -169 l24 -28 211 -3 c116 -2 211
-5 211 -8 0 -3 -183 -191 -408 -417 -224 -227 -558 -565 -742 -752 -184 -187
-338 -341 -342 -343 -4 -2 -8 90 -10 203 l-3 207 -33 29 c-44 39 -90 39 -134
0 l-33 -29 -3 -355 -3 -354 36 -32 36 -31 327 0 c183 0 343 4 362 10 80 22 95
151 22 187 -9 4 -109 10 -221 13 l-203 5 423 430 c510 519 1071 1085 1075
1085 2 0 4 -93 6 -206 l3 -206 33 -29 c44 -39 90 -39 134 0 l33 29 3 355 3
354 -36 32 -36 31 -332 -1 c-183 -1 -341 -4 -352 -7z"/>
</g>
</svg>
